<svg xmlns="http://www.w3.org/2000/svg" width="51.693" height="58.298" viewBox="0 0 51.693 58.298"><g transform="translate(-1210.876 -2599.256)"><circle cx="3.5" cy="3.5" r="3.5" transform="translate(1233.246 2600.405)" fill="#33b355"/><circle cx="3.5" cy="3.5" r="3.5" transform="translate(1233.246 2649.405)" fill="#33b355"/><circle cx="4.5" cy="4.5" r="4.5" transform="translate(1232.246 2619.405)" fill="#33b355"/><g transform="translate(1210.876 2599.256)"><path d="M577.923,521.134c-.425-.149-.867-.263-1.274-.452a4.565,4.565,0,0,1-2.508-5.2c.034-.145.061-.292.1-.473q-1.578-.914-3.146-1.822-4.9-2.829-9.793-5.663a.568.568,0,0,0-.82.083,4.522,4.522,0,0,1-5.17.776,4.581,4.581,0,0,1,.776-8.518.5.5,0,0,0,.425-.593q-.013-7.284,0-14.568c0-.294-.037-.466-.38-.571a4.586,4.586,0,1,1,4.492-7.635c.067.063.139.123.243.214l13.37-7.721a4.614,4.614,0,0,1,1.828-5.35,4.423,4.423,0,0,1,5.081,0,4.61,4.61,0,0,1,1.831,5.348l13.362,7.717c.167-.145.333-.291.5-.435a4.586,4.586,0,1,1,4.407,7.815.631.631,0,0,0-.551.732q.026,7.2,0,14.4c0,.377.08.549.48.667a4.584,4.584,0,1,1-4.453,7.732c-.226-.209-.377-.341-.715-.145q-6.437,3.744-12.892,7.457a1.1,1.1,0,0,0-.148.132,4.7,4.7,0,0,1,.038,2.785,4.556,4.556,0,0,1-3.3,3.16c-.143.04-.283.089-.424.135Zm-3.013-50.559c-4.2,2.42-8.545,4.926-12.884,7.451a.719.719,0,0,0-.226.531c-.023.767.023,1.537-.021,2.3-.017.286,0,.442.265.587.781.428,1.547.882,2.315,1.333.588.346.757.8.487,1.262s-.744.548-1.332.216c-.775-.438-1.547-.882-2.312-1.338a.487.487,0,0,0-.636.049,14.571,14.571,0,0,1-1.992,1.155c-.275.132-.365.245-.364.528q.009,7.341,0,14.681c0,.333.147.411.422.542a11.753,11.753,0,0,1,1.893,1.1.535.535,0,0,0,.727.059c.743-.454,1.5-.881,2.262-1.31.591-.335,1.058-.253,1.331.215s.1.923-.484,1.265c-.768.451-1.534.9-2.316,1.332-.267.146-.286.3-.262.588a9.65,9.65,0,0,1,.028,2.135.673.673,0,0,0,.4.834q4.319,2.466,8.621,4.962l4.116,2.377c.849-.472,1.563-.929,2.329-1.269.354-.158.5-.285.488-.675-.027-.891-.023-1.783,0-2.674a.852.852,0,1,1,1.7.023c.007.91-.008,1.821.015,2.731a.652.652,0,0,0,.234.486c.814.452,1.65.866,2.478,1.292-.052.141-.03.145-.015.136q6.525-3.76,13.041-7.536c.129-.075.191-.356.194-.543a21.547,21.547,0,0,1,.01-2.191.612.612,0,0,0-.362-.75c-.8-.438-1.6-.871-2.351-1.381a1.088,1.088,0,0,1-.4-.842.985.985,0,0,1,.572-.666,1.2,1.2,0,0,1,.841.17c.9.481,1.771,1.005,2.492,1.42l2.783-1.6c-.015.086,0,.03,0-.025q0-7.454.01-14.908c0-.3-.13-.383-.389-.509a13.825,13.825,0,0,1-1.944-1.128c-.266-.188-.414-.224-.682-.062-.762.461-1.536.9-2.312,1.339-.577.325-1.064.226-1.323-.246-.249-.454-.089-.9.467-1.225.767-.453,1.536-.9,2.317-1.33.279-.153.32-.311.289-.629a9.475,9.475,0,0,1-.023-2.135.646.646,0,0,0-.373-.792q-6.308-3.625-12.605-7.269c-.109-.063-.229-.108-.349-.163a5.122,5.122,0,0,1-2.314,1.437.64.64,0,0,0-.289.5c-.03.909-.013,1.82-.017,2.731a.846.846,0,0,1-.609.918.836.836,0,0,1-1.086-.883c-.024-.929.007-1.859-.024-2.788a.694.694,0,0,0-.309-.489C576.647,471.462,575.845,471.062,574.909,470.575Zm6.573-3.112a2.877,2.877,0,1,0-2.9,2.884A2.875,2.875,0,0,0,581.482,467.463Zm21.259,36.787a2.888,2.888,0,1,0-2.88,2.9A2.888,2.888,0,0,0,602.742,504.25Zm-21.26,12.262a2.877,2.877,0,1,0-2.867,2.913A2.884,2.884,0,0,0,581.482,516.512Zm-24.156-9.367a2.883,2.883,0,1,0-2.856-2.918A2.893,2.893,0,0,0,557.326,507.145ZM554.469,479.7a2.887,2.887,0,1,0,2.909-2.863A2.879,2.879,0,0,0,554.469,479.7Zm48.272.007a2.888,2.888,0,0,0-5.775-.014,2.888,2.888,0,1,0,5.775.014Z" transform="translate(-552.759 -462.836)" fill="#4d4d4d"/><path d="M657.1,572.431a7.575,7.575,0,0,1,3.532,4.626,9.948,9.948,0,0,1,.269,1.793.853.853,0,0,1-.839,1c-.493.005-.816-.333-.853-.932a5.814,5.814,0,0,0-3.286-5.148,1.8,1.8,0,0,0-.9-.068q-1.126.086-2.246.239a.809.809,0,0,0-.514.274c-.363.527-.679,1.086-1.042,1.68.11.077.279.19.443.309a7.469,7.469,0,0,1,3.268,5.955c.032.7-.239,1.075-.766,1.114-.556.041-.894-.325-.936-1.035a5.714,5.714,0,0,0-3.262-5.033,1.332,1.332,0,0,0-.9-.068,5.938,5.938,0,0,1-3.363-.006,1.259,1.259,0,0,0-.842.051,5.681,5.681,0,0,0-3.293,4.892,3.638,3.638,0,0,1-.051.508.784.784,0,0,1-.9.685.773.773,0,0,1-.763-.829,7.119,7.119,0,0,1,.866-3.549,7.444,7.444,0,0,1,2.854-2.975c-.373-.62-.718-1.219-1.095-1.8a.627.627,0,0,0-.407-.185c-.837-.117-1.674-.231-2.515-.309a1.319,1.319,0,0,0-.695.138,5.808,5.808,0,0,0-3.264,4.869c-.011.113-.012.227-.023.341a.851.851,0,1,1-1.7-.063,7.474,7.474,0,0,1,.832-3.334,7.6,7.6,0,0,1,2.541-2.86c.109-.074.221-.144.328-.222a.372.372,0,0,0,.067-.1,5.3,5.3,0,1,1,8.563-5.992c.172.37.371.389.745.451,1.092.181,1.54-.373,2.089-1.214a5.206,5.206,0,0,1,7.513-1.176,5.282,5.282,0,0,1,.862,7.579C657.334,572.16,657.235,572.274,657.1,572.431Zm-9.7,3.247a3.576,3.576,0,0,0,3.584-3.571,3.59,3.59,0,1,0-7.179.012A3.575,3.575,0,0,0,647.405,575.679Zm-5.512-3.472a14.813,14.813,0,0,1,.952-2.725,15.167,15.167,0,0,1,1.891-2.2,3.525,3.525,0,0,0-4.281-2.07,3.592,3.592,0,0,0-2.508,4.253A3.524,3.524,0,0,0,641.894,572.207Zm10.829-.035a3.539,3.539,0,0,0,4.175-2.951,3.6,3.6,0,0,0-2.856-4.075,3.471,3.471,0,0,0-4,2.35A5.412,5.412,0,0,1,652.722,572.172Z" transform="translate(-621.553 -548.078)" fill="#4d4d4d"/><path d="M678.128,734.6q3.414,0,6.829,0c.731,0,1.1.291,1.1.847s-.384.858-1.1.858q-6.886,0-13.772,0c-.864,0-1.35-.6-1.016-1.243a.946.946,0,0,1,.96-.467C673.462,734.6,675.795,734.6,678.128,734.6Z" transform="translate(-652.224 -693.27)" fill="#4d4d4d"/><path d="M749.544,714.261c-.417,0-.834.022-1.249-.006a.807.807,0,0,1-.815-.842.776.776,0,0,1,.774-.822c.888-.034,1.779-.037,2.667,0a.778.778,0,0,1,.78.866.8.8,0,0,1-.852.8c-.434.023-.871,0-1.306,0Z" transform="translate(-717.869 -674.59)" fill="#4d4d4d"/><path d="M691.357,713.54a.857.857,0,0,1-.906.817.839.839,0,1,1,.1-1.675A.857.857,0,0,1,691.357,713.54Z" transform="translate(-668.839 -674.688)" fill="#4d4d4d"/><path d="M709.948,714.358a.839.839,0,1,1-.011-1.678.839.839,0,1,1,.011,1.678Z" transform="translate(-685.325 -674.687)" fill="#4d4d4d"/><path d="M671.032,712.683a.84.84,0,1,1,.039,1.678.839.839,0,1,1-.039-1.678Z" transform="translate(-652.349 -674.69)" fill="#4d4d4d"/></g></g></svg>